<svg width="240" height="240" viewBox="0 0 240 240" fill="none" xmlns="http://www.w3.org/2000/svg">
<path d="M136.091 8.52955L134.698 8.31928C134.676 7.90606 134.585 7.53221 134.425 7.19772C134.268 6.8638 134.059 6.57178 133.798 6.32168C133.541 6.0684 133.245 5.86275 132.908 5.70474C132.572 5.54673 132.213 5.4389 131.831 5.38124C131.134 5.27611 130.477 5.35691 129.858 5.62365C129.243 5.89096 128.717 6.34219 128.281 6.97734C127.848 7.61306 127.557 8.42909 127.407 9.42544C127.257 10.4218 127.295 11.2876 127.521 12.0228C127.752 12.7585 128.121 13.3449 128.63 13.7817C129.142 14.2192 129.747 14.4905 130.444 14.5956C130.826 14.6533 131.201 14.6562 131.569 14.6045C131.936 14.5527 132.28 14.4456 132.599 14.2831C132.923 14.1174 133.209 13.8982 133.457 13.6253C133.709 13.3492 133.906 13.0189 134.049 12.6343L135.442 12.8446C135.248 13.4168 134.978 13.9143 134.631 14.3369C134.284 14.7595 133.88 15.1027 133.419 15.3664C132.958 15.6263 132.459 15.8019 131.92 15.893C131.386 15.9847 130.828 15.9867 130.247 15.8991C129.266 15.751 128.43 15.3796 127.738 14.7848C127.046 14.1901 126.547 13.4176 126.242 12.4675C125.937 11.5174 125.876 10.4356 126.058 9.22196C126.241 8.00836 126.618 6.99264 127.189 6.17479C127.761 5.35694 128.464 4.76595 129.301 4.40181C130.137 4.03768 131.046 3.92966 132.027 4.07775C132.608 4.16536 133.14 4.33188 133.624 4.57731C134.112 4.8233 134.537 5.14033 134.9 5.52838C135.263 5.91268 135.549 6.35798 135.756 6.86427C135.964 7.36682 136.076 7.92191 136.091 8.52955Z" fill="black"/>
<path d="M152.296 14.3953C151.934 15.5682 151.41 16.5164 150.724 17.24C150.037 17.9635 149.253 18.4429 148.372 18.6783C147.491 18.9136 146.576 18.8848 145.628 18.592C144.68 18.2991 143.908 17.807 143.313 17.1156C142.717 16.4242 142.339 15.586 142.179 14.6009C142.019 13.6158 142.119 12.5368 142.48 11.364C142.842 10.1911 143.366 9.24287 144.052 8.51934C144.739 7.7958 145.523 7.31636 146.404 7.08103C147.285 6.84569 148.2 6.87445 149.148 7.16731C150.096 7.46016 150.868 7.95228 151.464 8.64367C152.059 9.33505 152.437 10.1733 152.597 11.1584C152.758 12.1435 152.657 13.2225 152.296 14.3953ZM150.993 13.9929C151.289 13.03 151.379 12.1676 151.261 11.4057C151.146 10.6448 150.868 10.0099 150.427 9.50084C149.989 8.99289 149.433 8.63497 148.76 8.42706C148.087 8.21916 147.424 8.20096 146.773 8.37245C146.125 8.54506 145.538 8.91286 145.012 9.47584C144.49 10.0399 144.08 10.8034 143.783 11.7664C143.487 12.7293 143.396 13.5911 143.51 14.352C143.628 15.1139 143.906 15.7488 144.344 16.2568C144.786 16.7658 145.343 17.1243 146.016 17.3322C146.69 17.5401 147.35 17.5578 147.998 17.3852C148.649 17.2137 149.236 16.8459 149.759 16.2818C150.285 15.7188 150.696 14.9559 150.993 13.9929Z" fill="black"/>
<path d="M161.331 10.8873L162.846 11.6178L162.222 22.0399L162.344 22.0991L170.093 15.1121L171.608 15.8425L166.564 26.329L165.377 25.7565L169.209 17.7892L169.107 17.7399L161.999 24.1278L160.853 23.575L161.409 14.0284L161.307 13.979L157.475 21.9463L156.288 21.3738L161.331 10.8873Z" fill="black"/>
<path d="M170.562 27.8922L177.111 18.274L180.359 20.4907C181.113 21.0054 181.636 21.5623 181.929 22.1615C182.228 22.7596 182.336 23.3678 182.254 23.9861C182.172 24.6044 181.938 25.1969 181.553 25.7636C181.167 26.3303 180.7 26.7663 180.153 27.0716C179.609 27.3791 179.004 27.5072 178.338 27.456C177.674 27.4017 176.968 27.1193 176.22 26.6089L173.893 25.02L174.596 23.9868L176.886 25.55C177.402 25.9024 177.878 26.0961 178.312 26.1312C178.746 26.1663 179.137 26.0801 179.485 25.8725C179.838 25.6639 180.145 25.367 180.408 24.9819C180.67 24.5968 180.832 24.2033 180.895 23.8014C180.961 23.4016 180.895 23.0077 180.696 22.6198C180.5 22.2288 180.14 21.855 179.618 21.4983L177.572 20.1016L171.726 28.6866L170.562 27.8922Z" fill="black"/>
<path d="M197.21 33.1307L198.242 34.0897L193.006 39.7408C192.465 40.3243 191.845 40.7176 191.145 40.9208C190.451 41.1238 189.733 41.1265 188.992 40.9289C188.253 40.7286 187.549 40.3178 186.88 39.6965C186.212 39.0751 185.75 38.4031 185.495 37.6805C185.243 36.9551 185.191 36.2369 185.338 35.526C185.491 34.815 185.838 34.1677 186.379 33.5842L191.615 27.9332L192.648 28.8922L187.488 34.46C187.102 34.8767 186.85 35.3327 186.732 35.8279C186.616 36.3204 186.641 36.8169 186.808 37.3176C186.979 37.8181 187.302 38.2887 187.776 38.7296C188.251 39.1705 188.744 39.4578 189.255 39.5915C189.769 39.7225 190.265 39.7106 190.745 39.5559C191.229 39.401 191.664 39.1152 192.05 38.6984L197.21 33.1307Z" fill="black"/>
<path d="M203.146 39.9309L204.123 39.151L209.56 45.9775L208.584 46.7575L206.304 43.8953L198.188 50.376L197.31 49.2738L205.426 42.7931L203.146 39.9309Z" fill="black"/>
<path d="M205.462 58.9825L215.536 53.1588L219.044 59.2426L217.962 59.8682L215.158 55.0051L211.754 56.9729L214.376 61.5209L213.294 62.1465L210.671 57.5984L207.248 59.5776L210.097 64.5194L209.015 65.145L205.462 58.9825Z" fill="black"/>
<path d="M213.588 72.4179L224.418 68.1621L225.853 71.8227C226.185 72.6691 226.313 73.4207 226.236 74.0774C226.164 74.7327 225.928 75.2892 225.53 75.7469C225.132 76.2046 224.613 76.5588 223.975 76.8095C223.337 77.0603 222.72 77.1522 222.124 77.0851C221.528 77.0181 220.984 76.7702 220.49 76.3415C220 75.9114 219.591 75.2766 219.262 74.4373L218.1 71.4749L219.285 71.0094L220.43 73.9295C220.656 74.5079 220.923 74.9401 221.231 75.2263C221.54 75.516 221.88 75.6792 222.253 75.716C222.63 75.7549 223.036 75.6892 223.469 75.5188C223.903 75.3484 224.25 75.1184 224.511 74.8287C224.772 74.539 224.92 74.1814 224.957 73.756C224.997 73.3291 224.903 72.823 224.673 72.2376L223.769 69.9312L214.102 73.7298L213.588 72.4179ZM220.452 75.6056L216.632 80.1835L216.035 78.66L219.871 74.1244L220.452 75.6056Z" fill="black"/>
<path d="M232.613 107.845C233.182 107.733 233.607 107.424 233.888 106.917C234.169 106.41 234.284 105.805 234.231 105.102C234.193 104.588 234.076 104.145 233.881 103.772C233.686 103.403 233.435 103.122 233.128 102.929C232.822 102.739 232.483 102.658 232.113 102.686C231.803 102.709 231.543 102.803 231.331 102.967C231.123 103.134 230.954 103.341 230.824 103.586C230.698 103.831 230.598 104.085 230.523 104.349C230.451 104.613 230.395 104.854 230.355 105.074L230.126 106.276C230.069 106.584 229.984 106.929 229.872 107.309C229.761 107.694 229.597 108.065 229.38 108.423C229.168 108.785 228.883 109.091 228.526 109.342C228.169 109.593 227.718 109.739 227.174 109.78C226.547 109.827 225.968 109.705 225.438 109.414C224.907 109.127 224.469 108.682 224.124 108.077C223.779 107.476 223.573 106.73 223.506 105.838C223.444 105.007 223.524 104.278 223.747 103.65C223.97 103.025 224.308 102.521 224.762 102.138C225.216 101.758 225.758 101.522 226.39 101.429L226.498 102.879C226.063 102.95 225.711 103.124 225.443 103.403C225.18 103.685 224.993 104.029 224.883 104.436C224.777 104.847 224.741 105.282 224.775 105.743C224.816 106.28 224.938 106.755 225.144 107.169C225.354 107.582 225.624 107.902 225.957 108.127C226.293 108.353 226.672 108.45 227.095 108.418C227.48 108.389 227.786 108.258 228.011 108.025C228.237 107.791 228.412 107.493 228.537 107.13C228.662 106.768 228.766 106.378 228.848 105.962L229.15 104.503C229.342 103.577 229.661 102.832 230.105 102.267C230.549 101.701 231.161 101.39 231.943 101.331C232.593 101.282 233.173 101.415 233.683 101.73C234.196 102.049 234.61 102.496 234.923 103.073C235.239 103.653 235.426 104.314 235.481 105.054C235.537 105.802 235.453 106.477 235.228 107.079C235.007 107.68 234.679 108.168 234.244 108.543C233.809 108.921 233.299 109.142 232.715 109.204L232.613 107.845Z" fill="black"/>
<path d="M232.216 127.722L232.321 126.317C232.731 126.265 233.097 126.146 233.419 125.961C233.74 125.78 234.015 125.55 234.245 125.271C234.478 124.996 234.661 124.685 234.794 124.338C234.926 123.991 235.007 123.624 235.035 123.239C235.088 122.536 234.958 121.887 234.646 121.29C234.333 120.696 233.844 120.206 233.178 119.818C232.511 119.433 231.676 119.204 230.671 119.128C229.666 119.053 228.806 119.155 228.09 119.436C227.373 119.72 226.816 120.132 226.419 120.672C226.021 121.216 225.796 121.839 225.743 122.542C225.714 122.927 225.74 123.301 225.819 123.664C225.898 124.027 226.031 124.362 226.217 124.668C226.406 124.979 226.646 125.248 226.937 125.475C227.231 125.706 227.575 125.878 227.969 125.991L227.864 127.396C227.279 127.246 226.763 127.013 226.315 126.699C225.868 126.384 225.495 126.006 225.198 125.566C224.904 125.126 224.692 124.641 224.56 124.111C224.429 123.585 224.385 123.029 224.429 122.443C224.503 121.454 224.81 120.592 225.352 119.857C225.893 119.123 226.626 118.568 227.55 118.193C228.475 117.818 229.549 117.677 230.773 117.768C231.997 117.86 233.038 118.161 233.896 118.669C234.754 119.178 235.396 119.836 235.822 120.643C236.248 121.45 236.424 122.348 236.35 123.338C236.306 123.923 236.18 124.466 235.971 124.967C235.763 125.472 235.479 125.92 235.119 126.311C234.763 126.702 234.34 127.02 233.851 127.264C233.365 127.509 232.82 127.661 232.216 127.722Z" fill="black"/>
<path d="M235.126 140.437L223.782 137.845L224.095 136.471L235.439 139.063L235.126 140.437Z" fill="black"/>
<path d="M220.929 148.855L231.759 153.111L229.196 159.649L228.032 159.192L230.081 153.966L226.422 152.528L224.506 157.416L223.342 156.958L225.258 152.07L221.578 150.624L219.496 155.935L218.332 155.478L220.929 148.855Z" fill="black"/>
<path d="M220.973 177.413L210.899 171.589L211.58 170.408L222.657 169.487L222.714 169.389L214.804 164.816L215.508 163.595L225.582 169.419L224.901 170.6L213.793 171.529L213.736 171.628L221.665 176.212L220.973 177.413Z" fill="black"/>
<path d="M208.371 189.679L209.249 188.577C209.618 188.764 209.987 188.872 210.357 188.901C210.724 188.932 211.081 188.897 211.428 188.796C211.775 188.701 212.101 188.547 212.406 188.334C212.711 188.122 212.983 187.865 213.224 187.562C213.663 187.011 213.922 186.401 214 185.731C214.075 185.065 213.947 184.383 213.616 183.687C213.282 182.994 212.721 182.333 211.934 181.704C211.146 181.075 210.378 180.675 209.629 180.503C208.877 180.335 208.185 180.361 207.553 180.584C206.918 180.809 206.381 181.197 205.942 181.748C205.702 182.05 205.512 182.374 205.373 182.718C205.234 183.063 205.155 183.415 205.136 183.773C205.118 184.136 205.165 184.494 205.277 184.845C205.39 185.202 205.577 185.538 205.839 185.854L204.961 186.956C204.563 186.502 204.267 186.019 204.075 185.506C203.882 184.994 203.787 184.472 203.789 183.941C203.794 183.411 203.892 182.891 204.082 182.378C204.27 181.869 204.546 181.385 204.912 180.926C205.531 180.149 206.27 179.61 207.13 179.308C207.99 179.006 208.908 178.961 209.883 179.172C210.857 179.383 211.824 179.872 212.783 180.638C213.742 181.403 214.433 182.238 214.856 183.143C215.278 184.047 215.438 184.953 215.335 185.86C215.233 186.767 214.872 187.609 214.254 188.385C213.888 188.844 213.478 189.222 213.024 189.519C212.568 189.818 212.081 190.028 211.564 190.148C211.05 190.271 210.522 190.295 209.98 190.222C209.441 190.15 208.905 189.969 208.371 189.679Z" fill="black"/>
<path d="M198.434 189.849L206.343 198.384L201.198 203.164L200.349 202.247L204.461 198.426L201.789 195.543L197.943 199.116L197.093 198.199L200.939 194.626L198.251 191.725L194.072 195.608L193.222 194.691L198.434 189.849Z" fill="black"/>
<path d="M173.958 210.106L175.289 209.464L176.484 221.806L175.174 222.438L166.282 213.807L167.612 213.166L174.99 220.483L175.072 220.444L173.958 210.106ZM175.437 214.439L170.074 217.025L169.532 215.899L174.896 213.312L175.437 214.439Z" fill="black"/>
<path d="M155.009 230.856L151.583 219.735L152.886 219.333L161.634 226.193L161.743 226.16L159.053 217.428L160.399 217.013L163.825 228.133L162.522 228.536L153.745 221.66L153.637 221.694L156.333 230.447L155.009 230.856Z" fill="black"/>
<path d="M141.956 222.495L145.507 221.959L147.239 233.466L143.531 234.025C142.415 234.194 141.425 234.107 140.562 233.767C139.699 233.429 138.992 232.864 138.439 232.07C137.887 231.28 137.522 230.289 137.342 229.098C137.162 227.9 137.22 226.835 137.517 225.906C137.814 224.98 138.336 224.223 139.083 223.635C139.83 223.051 140.788 222.671 141.956 222.495ZM144.3 223.405L142.232 223.717C141.281 223.861 140.52 224.163 139.95 224.625C139.38 225.086 138.992 225.679 138.787 226.404C138.582 227.128 138.55 227.958 138.691 228.895C138.831 229.824 139.103 230.6 139.507 231.225C139.912 231.854 140.443 232.302 141.1 232.571C141.758 232.843 142.536 232.911 143.435 232.776L145.66 232.44L144.3 223.405Z" fill="black"/>
<path d="M106.767 232.637C106.748 233.217 106.955 233.7 107.387 234.087C107.819 234.474 108.384 234.72 109.08 234.825C109.59 234.902 110.048 234.887 110.455 234.78C110.858 234.672 111.188 234.49 111.445 234.234C111.698 233.977 111.852 233.665 111.907 233.298C111.954 232.991 111.92 232.716 111.808 232.473C111.69 232.233 111.527 232.023 111.317 231.841C111.106 231.664 110.88 231.509 110.64 231.377C110.398 231.249 110.175 231.141 109.97 231.052L108.849 230.561C108.561 230.437 108.244 230.278 107.898 230.084C107.548 229.89 107.223 229.647 106.922 229.357C106.616 229.069 106.381 228.723 106.216 228.319C106.051 227.915 106.009 227.443 106.09 226.904C106.184 226.282 106.431 225.745 106.832 225.292C107.23 224.839 107.762 224.511 108.428 224.309C109.091 224.106 109.864 224.072 110.748 224.205C111.572 224.33 112.266 224.57 112.829 224.927C113.388 225.284 113.804 225.726 114.077 226.253C114.346 226.78 114.456 227.362 114.406 227.998L112.968 227.781C112.996 227.341 112.904 226.959 112.692 226.636C112.476 226.316 112.182 226.057 111.809 225.859C111.432 225.665 111.016 225.533 110.559 225.464C110.027 225.383 109.536 225.398 109.087 225.506C108.637 225.618 108.266 225.811 107.972 226.085C107.677 226.362 107.498 226.71 107.435 227.13C107.377 227.512 107.437 227.839 107.615 228.111C107.792 228.383 108.044 228.62 108.37 228.822C108.695 229.025 109.052 229.213 109.44 229.386L110.794 230.004C111.654 230.398 112.311 230.875 112.763 231.433C113.215 231.992 113.383 232.659 113.266 233.434C113.169 234.078 112.91 234.614 112.49 235.041C112.065 235.471 111.537 235.774 110.905 235.951C110.269 236.131 109.584 236.165 108.849 236.055C108.108 235.943 107.469 235.71 106.932 235.357C106.395 235.008 105.992 234.579 105.723 234.072C105.451 233.563 105.35 233.017 105.418 232.434L106.767 232.637Z" fill="black"/>
<path d="M87.7043 225.605C88.0656 224.432 88.5896 223.484 89.2762 222.76C89.9629 222.036 90.7467 221.557 91.6278 221.322C92.5089 221.086 93.4235 221.115 94.3717 221.408C95.32 221.701 96.0919 222.193 96.6874 222.884C97.283 223.576 97.6609 224.414 97.8212 225.399C97.9814 226.384 97.8809 227.463 97.5195 228.636C97.1582 229.809 96.6342 230.757 95.9476 231.481C95.2609 232.204 94.4771 232.684 93.596 232.919C92.715 233.154 91.8003 233.125 90.8521 232.833C89.9038 232.54 89.1319 232.048 88.5364 231.356C87.9408 230.665 87.5629 229.827 87.4026 228.842C87.2424 227.856 87.3429 226.777 87.7043 225.605ZM89.0072 226.007C88.7105 226.97 88.6212 227.832 88.7392 228.594C88.8536 229.355 89.1317 229.99 89.5733 230.499C90.0114 231.007 90.567 231.365 91.2402 231.573C91.9133 231.781 92.5756 231.799 93.2269 231.627C93.8746 231.455 94.4616 231.087 94.9878 230.524C95.5104 229.96 95.92 229.197 96.2166 228.234C96.5133 227.271 96.6044 226.409 96.49 225.648C96.372 224.886 96.0939 224.251 95.6559 223.743C95.2142 223.234 94.6568 222.876 93.9836 222.668C93.3105 222.46 92.65 222.442 92.0023 222.615C91.351 222.786 90.764 223.154 90.2415 223.718C89.7153 224.281 89.3038 225.044 89.0072 226.007Z" fill="black"/>
<path d="M83.7124 218.626L78.6687 229.112L72.3839 226.082L72.9257 224.956L77.9412 227.374L79.6455 223.831L75.1007 221.639L75.6425 220.513L80.1873 222.704L82.4432 218.014L83.7124 218.626Z" fill="black"/>
<path d="M64.1178 221.052L63.4143 222.085L56.2063 217.165L56.9099 216.131L59.932 218.194L65.7778 209.609L66.9416 210.404L61.0958 218.989L64.1178 221.052Z" fill="black"/>
<path d="M54.7455 202.093L49.1671 212.794L48.1181 211.819L52.7784 203.213L52.6951 203.135L44.4383 208.401L43.2728 207.318L47.8997 198.68L47.8165 198.603L39.593 203.899L38.544 202.925L48.7845 196.555L49.8502 197.545L45.4289 206.095L45.4955 206.157L53.6798 201.103L54.7455 202.093Z" fill="black"/>
<path d="M44.2762 192.717L45.1965 193.873L33.4413 197.791L32.5351 196.654L38.9664 186.051L39.8868 187.206L34.3985 196.038L34.4551 196.109L44.2762 192.717ZM40.3843 195.127L36.6745 190.469L37.6513 189.689L41.3611 194.347L40.3843 195.127Z" fill="black"/>
<path d="M34.5382 181.018L24.464 186.841L22.4999 183.435C22.0458 182.648 21.8075 181.923 21.785 181.263C21.7592 180.604 21.9092 180.018 22.2348 179.506C22.5605 178.994 23.0201 178.567 23.6137 178.223C24.2072 177.88 24.8036 177.698 25.4027 177.675C26.0019 177.652 26.5773 177.816 27.1292 178.167C27.6778 178.519 28.1772 179.086 28.6276 179.867L30.217 182.623L29.1151 183.26L27.5484 180.543C27.2381 180.005 26.9096 179.617 26.563 179.38C26.2145 179.14 25.8533 179.029 25.4796 179.048C25.1007 179.066 24.7096 179.191 24.3062 179.424C23.9028 179.658 23.5938 179.937 23.3792 180.262C23.1645 180.588 23.0707 180.963 23.0979 181.39C23.1217 181.818 23.2907 182.304 23.6048 182.849L24.8423 184.995L33.8344 179.797L34.5382 181.018ZM27.2766 178.889L30.3717 173.792L31.1891 175.209L28.0713 180.267L27.2766 178.889Z" fill="black"/>
<path d="M26.4121 167.582L15.5819 171.838L13.019 165.3L14.1824 164.842L16.2311 170.069L19.8905 168.631L17.9745 163.743L19.1379 163.286L21.0539 168.174L24.7345 166.727L22.6526 161.416L23.816 160.959L26.4121 167.582Z" fill="black"/>
<path d="M16.2967 134.267L16.5647 137.848L4.96095 138.719L4.68106 134.979C4.59681 133.854 4.75702 132.873 5.16168 132.038C5.56257 131.202 6.17954 130.539 7.01259 130.047C7.84185 129.555 8.85707 129.265 10.0582 129.175C11.267 129.084 12.3237 129.221 13.2285 129.586C14.1295 129.952 14.845 130.528 15.375 131.317C15.9012 132.105 16.2085 133.089 16.2967 134.267ZM15.213 136.537L15.057 134.452C14.9852 133.492 14.7406 132.711 14.3232 132.108C13.9058 131.505 13.3437 131.074 12.6368 130.816C11.9299 130.557 11.1043 130.463 10.16 130.534C9.22326 130.605 8.42827 130.818 7.77504 131.175C7.11803 131.532 6.63098 132.028 6.31388 132.663C5.993 133.299 5.86649 134.07 5.93434 134.977L6.10227 137.22L15.213 136.537Z" fill="black"/>
<path d="M15.0631 122.214L3.45938 121.343L3.98354 114.34L5.23003 114.433L4.81105 120.031L8.73184 120.326L9.12369 115.09L10.3702 115.184L9.97834 120.419L13.9218 120.715L14.3476 115.026L15.5941 115.12L15.0631 122.214Z" fill="black"/>
<path d="M4.66711 103.471L14.9842 102.285L15.0145 102.152L6.23302 96.602L6.56135 95.1617L16.9556 101.92L16.6323 103.338L4.33877 104.912L4.66711 103.471Z" fill="black"/>
<path d="M19.0714 91.1449L8.24122 86.8891L10.8041 80.3508L11.9675 80.8079L9.91886 86.0344L13.5783 87.4724L15.4943 82.5845L16.6577 83.0417L14.7417 87.9296L18.4222 89.3759L20.5041 84.0648L21.6675 84.522L19.0714 91.1449Z" fill="black"/>
<path d="M24.4922 76.4046L14.4179 70.581L15.1218 69.3603L24.1139 74.5583L26.8159 69.8725L27.8981 70.498L24.4922 76.4046Z" fill="black"/>
<path d="M33.6168 51.327C34.5758 52.0928 35.2666 52.9279 35.689 53.8324C36.1115 54.7368 36.2715 55.6425 36.1689 56.5495C36.0664 57.4565 35.706 58.2981 35.0877 59.0744C34.4694 59.8506 33.7301 60.3897 32.8698 60.6917C32.0095 60.9936 31.092 61.0389 30.1173 60.8278C29.1426 60.6167 28.1758 60.1282 27.2167 59.3625C26.2576 58.5967 25.5669 57.7616 25.1444 56.8571C24.722 55.9527 24.562 55.047 24.6645 54.14C24.7671 53.2331 25.1275 52.3914 25.7458 51.6152C26.3641 50.8389 27.1034 50.2998 27.9637 49.9979C28.824 49.696 29.7415 49.6506 30.7162 49.8617C31.6908 50.0728 32.6577 50.5613 33.6168 51.327ZM32.7672 52.3937C31.9798 51.765 31.2103 51.3663 30.4586 51.1974C29.7092 51.0256 29.0172 51.0524 28.3826 51.2776C27.7504 51.4999 27.2148 51.8866 26.7759 52.4377C26.3369 52.9888 26.0784 53.5991 26.0003 54.2687C25.9246 54.9353 26.0525 55.6167 26.3842 56.3129C26.7182 57.0062 27.2789 57.6671 28.0663 58.2958C28.8536 58.9245 29.622 59.3248 30.3714 59.4965C31.1231 59.6654 31.8151 59.6386 32.4473 59.4164C33.0819 59.1911 33.6186 58.803 34.0576 58.2519C34.4965 57.7008 34.7539 57.0919 34.8296 56.4253C34.9077 55.7557 34.7798 55.0743 34.4457 54.3811C34.1141 53.6848 33.5546 53.0224 32.7672 52.3937Z" fill="black"/>
<path d="M41.5661 50.1507L33.6566 41.6157L36.5372 38.9396C37.206 38.3183 37.8647 37.9313 38.5133 37.7785C39.1621 37.6204 39.7784 37.6502 40.3622 37.8678C40.9461 38.0855 41.471 38.4457 41.937 38.9486C42.403 39.4515 42.7239 40.0039 42.8996 40.6058C43.078 41.2052 43.0683 41.8244 42.8702 42.4634C42.6697 43.0995 42.2377 43.7257 41.5745 44.3419L39.5098 46.26L38.6601 45.3432L40.6915 43.456C41.1494 43.0306 41.4437 42.6098 41.5745 42.1936C41.7053 41.7774 41.7082 41.3766 41.5833 40.9911C41.4587 40.6002 41.238 40.2339 40.9213 39.8922C40.6046 39.5504 40.2576 39.3041 39.8802 39.1532C39.5056 38.9997 39.1073 38.9768 38.6854 39.0844C38.2609 39.1892 37.817 39.4569 37.3535 39.8874L35.5386 41.5735L42.5984 49.1916L41.5661 50.1507Z" fill="black"/>
<path d="M46.2889 29.6056L47.6779 28.6574L56.3806 34.4117L56.4932 34.3348L54.3228 24.1214L55.7118 23.1732L62.2613 32.7914L61.1725 33.5346L56.1965 26.227L56.1027 26.2911L58.0754 35.6488L57.0242 36.3664L49.0449 31.109L48.951 31.1731L53.927 38.4807L52.8383 39.2238L46.2889 29.6056Z" fill="black"/>
<path d="M65.6116 30.1014L60.5679 19.615L66.8937 16.5649L67.4355 17.6913L62.379 20.1295L64.0832 23.6727L68.8122 21.3925L69.354 22.519L64.625 24.7992L66.3391 28.363L71.4775 25.8854L72.0193 27.0118L65.6116 30.1014Z" fill="black"/>
<path d="M84.9912 9.14385L88.4172 20.2644L87.1142 20.6668L78.3658 13.8066L78.2572 13.8401L80.9471 22.5715L79.6008 22.9873L76.1748 11.8667L77.4777 11.4643L86.2546 18.3396L86.3632 18.3061L83.6666 9.55295L84.9912 9.14385Z" fill="black"/>
<path d="M92.3176 7.86538L92.1316 6.62931L100.761 5.32699L100.947 6.56306L97.3291 7.10909L98.8752 17.3797L97.4819 17.59L95.9357 7.31936L92.3176 7.86538Z" fill="black"/>
</svg>
